<?xml version="1.0" standalone="no"?>
<!DOCTYPE svg PUBLIC "-//W3C//DTD SVG 20010904//EN"
 "http://www.w3.org/TR/2001/REC-SVG-20010904/DTD/svg10.dtd">
<svg version="1.0" xmlns="http://www.w3.org/2000/svg"
 width="1024.000000pt" height="1024.000000pt" viewBox="0 0 1024.000000 1024.000000"
 preserveAspectRatio="xMidYMid meet">

<g transform="translate(0.000000,1024.000000) scale(0.100000,-0.100000)"
fill="#000000" stroke="none">
<path d="M4735 9234 c-312 -31 -556 -79 -810 -157 -368 -114 -808 -331 -946
-467 -60 -59 -68 -71 -79 -125 -17 -82 -7 -181 23 -242 27 -53 121 -147 162
-163 15 -6 65 -10 113 -10 86 0 89 1 167 46 295 169 471 252 684 323 348 117
631 163 991 163 565 0 1044 -130 1571 -427 l186 -105 70 0 c109 0 129 7 197
71 109 101 144 207 116 342 -17 82 -88 155 -235 243 -348 206 -759 365 -1154
444 -242 49 -363 60 -696 64 -176 2 -338 2 -360 0z"/>
<path d="M4700 8175 c-296 -40 -551 -115 -817 -240 -218 -103 -375 -209 -440
-297 -37 -51 -38 -55 -41 -149 -5 -119 11 -162 90 -245 76 -81 107 -94 221
-94 l94 0 89 55 c113 70 324 178 423 216 88 34 249 80 371 106 70 15 132 18
350 18 218 0 280 -3 350 -18 122 -26 283 -72 371 -106 100 -39 302 -140 388
-195 125 -80 141 -86 241 -86 110 0 147 14 213 78 75 73 90 110 90 222 0 85
-3 101 -27 150 -54 104 -182 202 -414 319 -253 127 -516 212 -797 257 -141 22
-612 28 -755 9z"/>
<path d="M4785 7129 c-279 -41 -604 -191 -783 -363 -91 -87 -106 -120 -106
-231 0 -107 17 -147 98 -233 74 -79 113 -96 216 -96 97 0 99 1 225 92 110 80
249 146 375 180 138 37 323 37 463 -1 129 -34 260 -98 377 -183 l95 -69 97 -3
c121 -5 162 12 242 99 65 70 76 102 76 224 0 113 -19 156 -98 234 -173 169
-512 319 -795 351 -99 12 -399 11 -482 -1z"/>
<path d="M4869 6053 c-116 -57 -210 -185 -238 -323 -24 -120 -51 -376 -61
-585 -5 -121 -12 -245 -15 -275 -17 -181 -28 -529 -35 -1165 -5 -396 -13 -742
-17 -768 l-8 -48 -37 28 c-48 37 -73 70 -102 136 -65 147 -85 276 -96 615 -8
268 -8 273 -35 328 -31 63 -104 127 -163 144 -20 5 -71 10 -112 10 -95 0 -155
-26 -232 -102 -115 -112 -143 -226 -155 -628 -9 -324 12 -467 93 -639 98 -209
241 -350 435 -428 57 -23 93 -33 293 -77 38 -9 75 -21 82 -27 11 -9 14 -71 14
-313 l0 -302 28 -45 c35 -54 93 -106 130 -116 36 -10 749 -10 785 0 41 11 124
93 138 135 9 27 10 201 4 714 -6 549 -5 687 6 723 13 44 15 45 109 86 142 62
224 113 305 191 92 87 145 168 200 305 72 179 80 235 80 558 0 311 -8 368 -64
448 -35 51 -102 106 -150 123 -85 31 -207 11 -270 -43 -83 -71 -110 -163 -111
-378 -1 -209 -62 -493 -123 -569 l-24 -29 -11 134 c-16 181 -30 458 -37 719
-6 267 -42 985 -55 1103 -17 163 -105 292 -242 357 -56 27 -73 30 -159 30 -83
0 -102 -3 -150 -27z"/>
</g>
</svg>
